<?xml version="1.0" standalone="no"?>
<!DOCTYPE svg PUBLIC "-//W3C//DTD SVG 20010904//EN"
 "http://www.w3.org/TR/2001/REC-SVG-20010904/DTD/svg10.dtd">
<svg version="1.0" xmlns="http://www.w3.org/2000/svg"
 width="700.000000pt" height="700.000000pt" viewBox="0 0 700.000000 700.000000"
 preserveAspectRatio="xMidYMid meet">
<metadata>
Created by potrace 1.11, written by Peter Selinger 2001-2013
</metadata>
<g transform="translate(0.000000,700.000000) scale(0.100000,-0.100000)"
fill="#000000" stroke="none">
<path d="M0 3500 l0 -3500 3500 0 3500 0 0 3500 0 3500 -3500 0 -3500 0 0
-3500z m5725 1719 c4 -75 10 -142 14 -147 4 -7 71 10 190 49 101 32 186 57
188 55 3 -2 -47 -75 -111 -162 -64 -87 -113 -161 -108 -165 4 -4 80 -37 170
-73 90 -36 171 -70 180 -75 19 -11 8 -14 -220 -68 -87 -20 -158 -39 -158 -42
0 -3 43 -85 94 -181 51 -96 92 -176 91 -178 -2 -2 -57 24 -124 57 -66 34 -122
61 -123 61 -2 0 -2 -21 -1 -47 7 -128 33 -841 38 -1013 7 -243 -9 -666 -30
-785 -32 -181 -98 -342 -190 -457 -94 -120 -269 -232 -425 -275 -89 -24 -281
-24 -370 0 -134 36 -269 113 -384 218 -37 34 -71 58 -75 53 -4 -5 -24 -30 -44
-56 -49 -62 -122 -98 -196 -98 -67 1 -112 16 -173 58 l-47 32 -85 -65 c-643
-484 -1542 -514 -2215 -72 -188 124 -359 282 -487 452 -176 232 -297 501 -360
798 -35 167 -44 457 -20 631 105 745 610 1354 1316 1586 489 161 1006 124
1469 -106 210 -104 363 -216 532 -390 317 -327 500 -733 540 -1199 6 -71 8
-177 5 -235 -7 -115 -39 -325 -61 -396 l-13 -45 61 -45 c103 -74 134 -137 125
-253 -3 -45 -13 -73 -41 -121 l-38 -63 27 -39 c44 -62 148 -153 211 -184 49
-24 71 -29 138 -29 69 0 88 4 138 30 112 56 178 154 213 315 18 82 35 516 29
715 -16 486 -39 1032 -44 1041 -4 8 -49 -22 -119 -78 -63 -49 -116 -88 -118
-85 -3 3 20 89 50 193 30 103 54 189 53 191 -2 1 -95 6 -207 10 l-205 8 165
109 c91 60 168 111 172 115 4 4 -59 67 -142 141 -104 94 -143 136 -131 138 10
2 98 -6 196 -17 99 -11 181 -18 183 -16 4 4 -25 240 -45 367 -5 36 -1 33 141
-111 l146 -148 107 174 108 174 7 -58 c3 -32 9 -119 13 -194z"/>
</g>
</svg>
